<?xml version="1.0" standalone="no"?>
<!DOCTYPE svg PUBLIC "-//W3C//DTD SVG 20010904//EN"
 "http://www.w3.org/TR/2001/REC-SVG-20010904/DTD/svg10.dtd">
<svg version="1.0" xmlns="http://www.w3.org/2000/svg"
 width="500.000000pt" height="500.000000pt" viewBox="0 0 500.000000 500.000000"
 preserveAspectRatio="xMidYMid meet">
<metadata>
Created by potrace 1.14, written by Peter Selinger 2001-2017
</metadata>
<g transform="translate(0.000000,500.000000) scale(0.100000,-0.100000)"
fill="#000000" stroke="none">
<path d="M822 4552 c-18 -3 -43 -30 -47 -52 -1 -3 -4 -18 -8 -35 -15 -62 -18
-82 -24 -165 -12 -150 -6 -431 12 -520 3 -14 7 -38 9 -55 11 -74 18 -114 32
-175 18 -73 68 -229 89 -275 7 -16 21 -50 31 -75 9 -25 21 -50 27 -57 8 -11 2
-118 -9 -134 -4 -8 -13 -137 -17 -247 -1 -34 2 -62 6 -62 18 0 -5 -18 -30 -24
-38 -9 -213 -97 -213 -108 0 -4 -5 -8 -11 -8 -16 0 -38 -26 -31 -36 8 -10 5
-9 85 -19 32 -3 64 -8 70 -10 7 -2 28 -6 47 -9 19 -3 50 -10 68 -15 38 -11 36
-11 62 -11 33 0 26 -43 -10 -59 -17 -7 -38 -24 -47 -37 -15 -23 -15 -26 5 -44
12 -11 26 -20 31 -20 5 0 12 -4 15 -9 5 -7 -97 -49 -134 -56 -39 -7 -120 -38
-130 -50 -21 -25 19 -19 150 26 67 22 133 42 148 44 15 2 48 6 73 10 44 6 47
5 82 -34 20 -23 37 -45 37 -50 0 -5 -10 -18 -23 -28 -28 -22 -28 -57 -1 -77
10 -8 44 -27 74 -43 30 -15 57 -31 58 -35 2 -5 10 -8 18 -8 17 0 54 -31 54
-45 0 -6 -14 -30 -31 -53 -17 -23 -27 -42 -22 -42 4 0 3 -4 -4 -8 -26 -17
-132 -268 -148 -352 -23 -119 -23 -121 -12 -268 15 -187 51 -283 146 -385 30
-31 33 -39 21 -47 -8 -6 -21 -8 -28 -5 -8 3 -19 2 -25 -2 -7 -4 -28 -8 -47 -9
-57 -2 -193 -14 -220 -19 -14 -2 -43 -6 -65 -9 -65 -8 -119 -17 -134 -22 -8
-2 -30 -7 -50 -10 -72 -12 -136 -39 -139 -60 -3 -23 28 -36 148 -59 14 -3 36
-7 50 -10 28 -7 77 -14 135 -20 22 -2 60 -6 85 -9 72 -8 243 -21 449 -33 127
-7 1697 -7 1831 0 253 14 422 28 530 42 25 4 59 8 75 9 17 2 41 6 55 10 14 4
36 8 50 10 14 2 45 8 70 15 102 27 124 45 89 77 -10 9 -19 14 -19 9 0 -4 -6
-3 -13 3 -14 12 -35 17 -181 41 -55 9 -101 21 -103 27 -2 7 18 22 44 35 219
105 353 258 422 479 26 84 32 121 36 256 6 221 -58 360 -220 480 -58 42 -104
66 -114 59 -5 -3 -12 -1 -16 5 -3 5 -34 10 -67 10 -101 0 -158 -50 -153 -135
3 -58 16 -81 84 -163 73 -87 100 -136 107 -197 8 -70 -13 -193 -45 -260 -37
-80 -124 -170 -173 -181 -5 -1 -9 -2 -10 -4 -2 -1 -10 -3 -18 -5 -8 -2 -22 -6
-31 -10 -27 -10 -33 12 -40 160 -4 77 -10 151 -13 164 -27 114 -109 289 -193
409 -35 52 -62 100 -59 107 5 13 22 23 129 76 31 16 57 34 57 40 0 6 -16 25
-36 43 l-36 32 46 47 c52 54 55 54 186 27 52 -11 111 -22 130 -25 19 -3 68
-11 108 -19 61 -12 72 -12 72 0 0 8 -6 14 -12 15 -17 1 -31 4 -103 22 -33 8
-78 18 -100 22 -79 14 -88 16 -106 26 -10 5 -22 9 -26 8 -21 -4 -33 2 -33 17
0 8 4 13 9 9 5 -3 15 1 23 8 7 7 28 19 46 26 34 14 37 26 17 73 -5 13 2 19 32
28 21 6 52 13 68 16 17 3 55 10 85 16 30 6 66 12 80 13 148 13 111 56 -110
130 l-95 32 0 71 c0 40 3 72 6 72 10 0 -2 223 -16 286 -3 13 5 36 18 55 31 47
97 184 97 203 0 9 4 16 8 16 5 0 9 6 10 13 0 6 16 67 36 134 19 67 37 134 40
150 3 15 7 37 9 48 3 11 8 43 11 70 4 28 9 63 12 79 8 49 15 120 14 141 -1 11
-1 25 -1 30 6 80 -2 258 -14 324 -1 9 -5 34 -9 56 -16 95 -37 113 -119 102
-235 -32 -548 -143 -862 -307 l-150 -78 -45 14 c-41 13 -172 46 -230 58 -14 3
-36 7 -50 10 -14 3 -47 8 -73 11 -58 5 -70 12 -62 34 4 9 8 24 10 34 2 10 25
52 50 94 25 42 43 79 38 84 -7 7 -112 -35 -123 -50 -3 -3 -25 -19 -49 -36 -24
-16 -45 -35 -48 -42 -3 -7 -9 -13 -14 -13 -5 0 -19 -10 -31 -22 l-22 -22 -10
31 c-14 41 -20 46 -43 35 -10 -5 -36 -18 -58 -28 -22 -10 -45 -23 -51 -29 -6
-5 -26 -22 -45 -37 -19 -14 -47 -38 -64 -53 -34 -30 -85 -55 -114 -55 -23 0
-81 26 -136 61 -59 37 -92 55 -175 96 -41 21 -76 41 -78 46 -2 4 -9 7 -16 7
-6 0 -56 20 -111 44 -98 43 -286 110 -335 120 -14 3 -63 13 -110 23 -47 10
-95 17 -108 15z m207 -2221 c29 -26 8 -32 -42 -13 -26 11 -34 18 -25 24 21 13
43 9 67 -11z"/>
</g>
</svg>
